<?xml version="1.0" standalone="no"?><!DOCTYPE svg PUBLIC "-//W3C//DTD SVG 1.1//EN" "http://www.w3.org/Graphics/SVG/1.1/DTD/svg11.dtd"><svg t="1568727904386" class="icon" viewBox="0 0 1024 1024" version="1.1" xmlns="http://www.w3.org/2000/svg" p-id="3062" xmlns:xlink="http://www.w3.org/1999/xlink" width="200" height="200"><defs><style type="text/css"></style></defs><path d="M265.755756 613.568805c56.302735-0.000983 112.609402 0.330227 168.904275-0.266344 12.016924-0.127766 23.689862 10.958429 23.638756 23.62303-0.450131 110.759737-0.29288 221.52144-0.189684 332.284125 0.00688 7.715127-1.783816 14.367827-8.19376 18.955624-2.74403 1.964655-6.013868 3.660017-9.278791 4.314574-4.385337 0.87864-8.99574 0.837362-13.509826 0.839327-109.756279 0.048158-219.512558 0.041278-329.268837 0.078625-7.836014 0.002948-15.276934-1.02508-19.756622-8.388358-2.009864-3.303254-3.655103-7.072363-4.38632-10.839508-0.751856-3.878203-0.202461-8.010955-0.203443-12.032649-0.012777-108.415714 0.17101-216.832412-0.290914-325.24616-0.055038-12.984018 11.792842-23.715415 23.630893-23.589615 56.296838 0.600502 112.601539 0.26831 168.904275 0.266344zM265.207343 953.682064c48.425443 0 96.85187-0.000983 145.278296 0.000983 6.338198 0 7.86255-1.690448 7.860584-8.714653-0.019656-92.662113-0.03833-185.326192-0.057003-277.988306-0.000983-3.015288 0.170028-6.043352-0.052089-9.042915-0.291897-3.939137-2.423631-6.092493-6.592748-5.896912-3.512594 0.165114-7.030102 0.325313-10.545645 0.326296-90.149046 0.016708-180.299075 0.015725-270.448121 0.004914-3.014305 0-6.031558-0.072729-9.041932-0.217203-7.441903-0.357746-9.700421 1.830991-9.698455 9.202132 0.018674 94.337819 0.022605 188.675639 0.004914 283.014441-0.000983 7.449766 1.727795 9.309259 9.02031 9.308276 48.090302-0.005897 96.181587-0.003931 144.271889 0.001966zM264.21273 527.729419c-56.141553 0-112.286054-0.294846-168.423676 0.231945-12.176141 0.11499-22.506548-8.98198-22.466253-22.335538 0.332193-111.277683 0.178873-222.555365 0.203443-333.83403 0.002948-11.697508 4.542588-18.895672 13.464616-21.426431 2.053108-0.581829 4.290986-0.70075 6.445325-0.701733 114.965218-0.030467 229.930437 0.095333 344.893689-0.212289 11.176614-0.030467 19.559075 10.385445 19.636718 19.261281 0.03833 4.356835 0.03833 8.714653 0.03833 13.071489 0.005897 106.417644 0.019656 212.836271-0.013759 319.253915-0.001966 6.476775 0.125801 12.803179-4.335213 18.606724-3.402518 4.425633-7.526426 6.453188-12.512265 7.476302-2.439356 0.501238-4.99665 0.579863-7.500872 0.580846-56.476694 0.032433-112.954371 0.025553-169.430083 0.025553zM265.807845 186.861355c0 0.04521 0 0.090419 0 0.136612-46.087318 0-92.173652 0.001966-138.26097-0.003931-3.016271 0-6.03549-0.166096-9.046846-0.071746-3.719969 0.116955-5.924431 2.104215-6.302816 5.848754-0.201478 1.995122-0.231945 4.014814-0.231945 6.024679-0.001966 62.845359 0.016708 125.691702 0.015725 188.537061-0.000983 30.333717-0.046192 60.667433-0.048158 91.000167 0 7.839945 2.355816 10.260627 9.551032 10.260627 96.362426 0.003931 192.725834 0.005897 289.08826 0.106144 4.623179 0.004914 6.8758-1.982345 7.445835-6.281194 0.240791-1.818215 0.285017-3.673776 0.286-5.511647 0.00688-92.006573 0.002948-184.012164-0.017691-276.018737-0.000983-2.678181-0.174942-5.356362-0.296811-8.03356-0.199512-4.392217-2.55926-6.042369-6.884645-6.036473-48.432323 0.06978-96.865629 0.043244-145.296969 0.043244zM724.565996 149.64889c54.633909 0 109.267818-0.026536 163.900745 0.043244 4.95832 0.005897 10.120084-0.125801 14.82582 1.144984 6.555401 1.771039 10.946635 6.269401 11.450821 13.63661 0.50222 7.318068 1.601012 14.627291 1.609857 21.940445 0.126784 104.91 0.32433 209.82-0.115973 314.728035-0.059952 14.360947-2.672284 21.002836-14.427779 25.493334-1.828043 0.697801-3.8841 1.130242-5.834012 1.131224-114.294936 0.036364-228.588889 0.014742-342.883825-0.001966-13.509826-0.001966-20.763028-7.091037-20.764011-20.307-0.009828-112.61923-0.097299-225.23846 0.075677-337.855724 0.022605-14.137847 6.947545-20.05245 21.23085-20.173337 2.678181-0.023588 5.357345 0.20934 8.035526 0.210323 54.299751 0.013759 108.598519 0.009828 162.896304 0.009828zM723.477033 186.937032c0 0.022605 0 0.043244 0 0.065849-45.082877 0-90.164771-0.000983-135.247648 0.001966-3.519474 0-7.038948 0.094351-10.557439 0.025553-4.893454-0.096316-7.599154 2.038366-7.666969 7.110693-0.019656 1.506661-0.217203 3.011357-0.217203 4.517035-0.015725 93.013962-0.026536 186.028908-0.015725 279.041887 0.000983 8.516124 1.57939 10.125981 10.149569 10.74614 0.834413 0.059952 1.67374 0.097299 2.511102 0.097299 94.689668 0.012777 189.38032 0.030467 284.069988 0.015725 8.356907-0.000983 10.779556-2.528793 10.775624-10.856215-0.005897-14.581098-0.044227-29.161214-0.043244-43.742312 0.003931-78.433847 0.017691-156.866711 0.02457-235.301541 0.000983-9.96873-1.624599-11.731907-10.49159-11.729941-47.763024 0.013759-95.52703 0.00688-143.291036 0.00688zM511.793608 797.045332c1.201004-20.222478 4.140615-39.832659 10.589872-58.788284 3.920464-11.519618 7.77213-23.219092 13.317193-33.98194 5.385847-10.455225 12.231179-20.35221 19.640649-29.519943 8.481725-10.495521 17.624888-20.673592 27.722367-29.58186 8.801142-7.764268 19.007714-14.119174 29.188733-20.081935 9.894036-5.794699 20.33845-10.792332 30.930288-15.208137 7.829134-3.264924 16.141814-5.835977 24.486928-7.299395 16.752145-2.936662 33.518049-7.057621 50.722291-5.123434 14.601738 1.641307 29.483578 2.645748 43.583096 6.401098 14.85727 3.957811 29.514046 9.716146 43.191934 16.760007 14.159469 7.293498 27.140539 16.800303 39.237071 27.529735 11.852794 10.513212 22.042658 22.333572 31.078693 35.123975 5.83696 8.261574 10.543679 17.370338 15.257278 26.362146 3.702278 7.063518 7.572618 14.266596 9.703369 21.873613 3.593185 12.830698 6.70872 25.921843 8.450275 39.110288 1.611823 12.211522 1.9106 24.72477 1.409362 37.0503-0.513031 12.61153-1.458503 25.307582-5.938191 37.452272-3.164676 8.582956-5.217785 17.570833-8.235038 26.213741-1.852613 5.307221-4.158306 10.56137-7.021257 15.388975-5.851703 9.873397-12.098498 19.519762-18.432765 29.094382-2.086524 3.153865-1.784799 5.41828 0.787238 7.917588 15.251381 14.829751 30.492933 29.670314 45.665688 44.579674 9.253238 9.093039 18.891741 17.870593 27.384278 27.634896 5.872342 6.750982 3.410381 18.687315-3.575494 24.480048-6.095442 5.054637-19.077494 4.741117-24.834846-0.775444-20.195942-19.349735-40.307361-38.787923-60.515096-58.124881-3.610876-3.455591-7.3849-6.776535-11.344676-9.821307-3.509646-2.699803-7.086123-1.382826-10.111239 1.127293-21.306527 17.681891-45.715812 28.876196-72.299093 36.261096-21.681964 6.022713-43.677446 6.22026-65.727967 5.538183-15.912818-0.491409-31.674281-3.803508-46.653421-9.003602-15.192412-5.273805-30.213813-11.558931-43.354099-21.206279-11.552051-8.481725-23.291821-16.827822-33.972111-26.329713-7.159834-6.370631-12.968293-14.394363-18.738421-22.154699-6.056129-8.145601-11.679818-16.664674-16.848461-25.400949-3.189247-5.389778-5.40452-11.402663-7.641415-17.294661-2.777446-7.313154-5.330809-14.727538-7.596206-22.214651-1.829026-6.046301-3.494903-12.197763-4.515069-18.420971-1.936153-11.813481-3.357309-23.708536-4.992719-35.569192zM871.306726 796.68169c0.865863-89.8542-72.547746-159.502631-156.367439-160.887422-89.319547-1.475211-167.921456 72.892715-163.412284 168.949484 3.69245 78.624514 70.289228 156.651474 168.956364 152.340831 78.383723-3.423158 150.437111-67.725054 150.822376-160.402893z" p-id="3063" fill="#d81e06"></path></svg>