<?xml version="1.0" standalone="no"?><!DOCTYPE svg PUBLIC "-//W3C//DTD SVG 1.1//EN" "http://www.w3.org/Graphics/SVG/1.1/DTD/svg11.dtd"><svg t="1568727989457" class="icon" viewBox="0 0 1024 1024" version="1.1" xmlns="http://www.w3.org/2000/svg" p-id="4931" xmlns:xlink="http://www.w3.org/1999/xlink" width="200" height="200"><defs><style type="text/css"></style></defs><path d="M455.424 521.469952c-100.036608-48.529408-134.023168-156.54912-106.42432-243.103744 26.18368-82.120704 104.349696-142.94016 200.613888-139.259904 82.098176 3.137536 159.903744 65.824768 181.311488 148.529152 23.205888 89.645056-16.195584 188.209152-109.57824 233.734144 11.722752 3.85024 22.956032 6.905856 33.71008 11.17184 118.935552 47.192064 191.00672 133.742592 216.776704 258.955264 0.679936 3.305472 0.815104 6.197248 0.724992 10.190848-0.159744 6.959104-2.455552 11.030528-8.656896 12.322816-6.109184 1.273856-13.725696-1.017856-16.150528-9.447424-3.28704-11.436032-4.308992-23.486464-7.75168-34.838528-38.89152-128.3072-124.3136-207.62624-256.423936-227.938304-173.920256-26.742784-321.030144 92.03712-351.840256 250.331136-0.843776 4.34176-1.048576 8.865792-2.363392 13.051904-2.59072 8.241152-9.787392 10.958848-15.548416 9.893888-5.783552-1.067008-11.159552-6.793216-9.660416-14.927872 25.976832-140.845056 107.370496-232.564736 243.679232-275.863552a137.957376 137.957376 0 0 0 4.831232-1.630208c0.894976-0.321536 1.755136-0.743424 2.750464-1.171456z m-89.288704-183.246848c-1.540096 92.669952 73.043968 168.359936 159.991808 173.975552 109.778944 7.090176 185.94816-83.623936 185.227264-172.53376-0.780288-96.294912-76.105728-173.764608-171.495424-174.227456-96.262144-0.466944-173.45536 76.306432-173.723648 172.785664z" fill="#d81e06" p-id="4932"></path></svg>